<?xml version="1.0" encoding="UTF-8"?>
<!DOCTYPE svg PUBLIC "-//W3C//DTD SVG 1.1//EN" "http://www.w3.org/Graphics/SVG/1.1/DTD/svg11.dtd">
<!-- Creator: CorelDRAW X8 -->
<svg xmlns="http://www.w3.org/2000/svg" xml:space="preserve" width="251.518mm" height="96.004mm" version="1.1" style="shape-rendering:geometricPrecision; text-rendering:geometricPrecision; image-rendering:optimizeQuality; fill-rule:evenodd; clip-rule:evenodd"
viewBox="0 0 25052 9562"
 xmlns:xlink="http://www.w3.org/1999/xlink">
 <defs>
  <style type="text/css">
   <![CDATA[
    .fil2 {fill:#0094D4}
    .fil1 {fill:#191919}
    .fil3 {fill:#74D0F7}
    .fil4 {fill:#74D0F7}
    .fil5 {fill:#FFDA00}
    .fil0 {fill:#191919;fill-rule:nonzero}
    .fil6 {fill:#4B4B4B;fill-rule:nonzero}
   ]]>
  </style>
 </defs>
 <g id="Capa_x0020_1">
  <metadata id="CorelCorpID_0Corel-Layer"/>
  <g id="_1696112505456">
   <path class="fil0" d="M7836 6575l-241 -162c73,-99 131,-195 174,-288 44,-93 76,-192 96,-299 20,-106 30,-228 30,-365l0 -2069 368 0 0 2094c0,141 -14,272 -42,392 -29,120 -75,236 -137,349 -63,112 -146,229 -248,348zm1550 -572c-120,0 -226,-22 -320,-67 -93,-45 -167,-117 -221,-219 -53,-101 -80,-235 -80,-404l0 -1238 365 0 0 1217c0,148 32,250 97,307 64,57 148,85 251,85 51,0 105,-7 161,-22 56,-15 110,-39 162,-72 52,-32 99,-75 139,-127l0 -1388 363 0 0 1897 -303 0 -25 -202 -19 0c-77,78 -164,136 -261,175 -98,39 -201,58 -309,58zm1348 781l-238 -160c71,-98 129,-194 173,-289 44,-96 76,-197 96,-304 20,-107 30,-226 30,-359l0 -1597 364 0 0 1580c0,148 -14,286 -42,412 -29,126 -74,247 -136,364 -63,116 -145,234 -247,353zm1520 -781c-120,0 -226,-22 -320,-67 -93,-45 -167,-117 -221,-219 -53,-101 -80,-235 -80,-404l0 -1238 365 0 0 1217c0,148 32,250 97,307 64,57 148,85 251,85 51,0 105,-7 161,-22 55,-15 109,-39 162,-72 52,-32 98,-75 139,-127l0 -1388 363 0 0 1897 -304 0 -24 -202 -19 0c-77,78 -164,136 -262,175 -97,39 -200,58 -308,58zm1700 736l285 -767 121 -274 577 -1623 362 0 -986 2664 -359 0zm183 -767l-703 -1897 385 0 661 1897 -343 0zm2341 33c-131,0 -246,-26 -348,-78 -102,-51 -182,-134 -240,-247 -58,-114 -87,-263 -87,-449l0 -1171 655 0 0 1124c0,98 20,165 60,202 39,37 91,56 155,56 34,0 68,-5 103,-14 35,-9 68,-23 99,-41 31,-18 58,-40 80,-65l0 -1262 658 0 0 1912 -541 0 -43 -187 -27 0c-69,73 -148,127 -237,164 -89,38 -185,56 -287,56zm1508 -33l0 -1912 540 0 44 186 28 0c68,-71 149,-125 242,-162 93,-37 195,-56 305,-56 128,0 242,26 343,77 100,52 179,135 237,250 57,114 86,265 86,451l0 1166 -657 0 0 -1124c0,-98 -19,-166 -58,-202 -39,-37 -95,-55 -165,-55 -36,0 -72,4 -107,13 -36,9 -70,22 -101,40 -31,18 -59,41 -82,68l0 1260 -655 0zm2186 0l0 -1912 657 0 0 1912 -657 0zm1745 35c-143,0 -275,-33 -396,-99 -121,-66 -218,-168 -291,-307 -73,-140 -110,-322 -110,-546 0,-220 41,-406 122,-560 82,-153 202,-270 361,-349 158,-80 355,-120 589,-120 33,0 65,2 98,4 33,2 63,5 91,7l0 -882 655 0 0 2817 -549 0 -40 -199 -28 0c-55,71 -124,128 -207,170 -84,42 -182,64 -295,64zm199 -534c49,0 96,-7 143,-22 46,-14 87,-37 122,-68l0 -846c-27,-4 -57,-8 -90,-12 -33,-3 -66,-5 -99,-5 -137,0 -240,36 -309,110 -69,74 -104,199 -104,374 0,122 15,217 43,285 29,68 68,116 118,143 50,27 108,41 176,41zm1834 536c-201,0 -357,-53 -468,-158 -111,-106 -167,-241 -167,-407 0,-185 65,-330 195,-434 131,-105 342,-166 635,-183l363 -25 73 352 -365 25c-90,6 -156,25 -197,60 -40,34 -61,81 -61,140 0,57 19,101 56,133 36,31 89,47 157,47 40,0 81,-6 123,-18 43,-11 82,-32 118,-61l0 -648c0,-77 -13,-138 -39,-183 -25,-46 -68,-78 -129,-98 -60,-20 -142,-29 -245,-29 -75,0 -159,5 -252,18 -94,12 -183,30 -268,55l0 -487c99,-26 206,-47 321,-60 115,-13 222,-20 321,-20 217,0 394,26 531,79 137,53 239,141 303,265 65,124 97,292 97,503l0 1097 -537 0 -46 -183 -29 0c-55,78 -125,134 -210,168 -86,34 -179,52 -280,52z"/>
   <circle class="fil1" cx="20500" cy="3430" r="332"/>
   <circle class="fil1" cx="10974" cy="3417" r="210"/>
   <circle class="fil2" cx="6103" cy="2528" r="462"/>
   <circle class="fil2" cx="5099" cy="1807" r="462"/>
   <circle class="fil2" cx="3863" cy="1504" r="462"/>
   <circle class="fil2" cx="2572" cy="1724" r="462"/>
   <circle class="fil3" cx="6951" cy="1717" r="341"/>
   <circle class="fil3" cx="5587" cy="748" r="341"/>
   <circle class="fil3" cx="3837" cy="341" r="341"/>
   <circle class="fil3" cx="2102" cy="644" r="341"/>
   <circle class="fil3" cx="598" cy="1625" r="341"/>
   <circle class="fil2" cx="1460" cy="7133" r="462"/>
   <ellipse class="fil2" cx="6101" cy="7043" rx="457" ry="462"/>
   <circle class="fil2" cx="2565" cy="7833" r="462"/>
   <circle class="fil2" cx="3844" cy="8048" r="462"/>
   <circle class="fil2" cx="5085" cy="7754" r="462"/>
   <circle class="fil4" cx="6766" cy="7844" r="341"/>
   <circle class="fil4" cx="5571" cy="8820" r="341"/>
   <circle class="fil4" cx="3857" cy="9221" r="341"/>
   <circle class="fil4" cx="2108" cy="8909" r="341"/>
   <circle class="fil4" cx="644" cy="7976" r="341"/>
   <path class="fil5" d="M3793 7231c-283,0 -512,-229 -512,-511 0,-283 229,-512 512,-512 282,0 511,229 511,512 0,282 -229,511 -511,511z"/>
   <circle class="fil2" cx="1460" cy="2426" r="462"/>
   <circle class="fil2" cx="705" cy="3515" r="462"/>
   <circle class="fil2" cx="462" cy="4797" r="462"/>
   <path class="fil5" d="M2370 3894c-282,0 -511,-229 -511,-511 0,-282 229,-511 511,-511 283,0 511,229 511,511 0,282 -228,511 -511,511z"/>
   <path class="fil5" d="M5137 3948c-283,0 -511,-229 -511,-511 0,-282 228,-511 511,-511 282,0 511,229 511,511 0,282 -229,511 -511,511z"/>
   <path class="fil5" d="M3800 3352c-282,0 -511,-229 -511,-511 0,-282 229,-511 511,-511 282,0 511,229 511,511 0,282 -229,511 -511,511z"/>
   <circle class="fil2" cx="723" cy="6070" r="462"/>
   <path class="fil5" d="M2365 6694c-282,0 -511,-229 -511,-511 0,-283 229,-512 511,-512 282,0 511,229 511,512 0,282 -229,511 -511,511z"/>
   <path class="fil5" d="M5143 6636c-282,0 -511,-229 -511,-511 0,-282 229,-511 511,-511 283,0 512,229 512,511 0,282 -229,511 -512,511z"/>
   <path class="fil5" d="M1781 5309c-282,0 -511,-229 -511,-511 0,-283 229,-512 511,-512 282,0 511,229 511,512 0,282 -229,511 -511,511z"/>
   <path class="fil6" d="M15848 7232l0 -381c17,-3 35,-6 53,-8 19,-2 38,-3 58,-3 55,0 96,11 124,33 28,23 41,58 41,107 0,45 -13,80 -40,104 -27,23 -67,35 -120,35 -7,0 -12,0 -18,0 -5,0 -11,-1 -17,-1l0 114 -81 0zm117 -176c27,0 48,-6 61,-18 13,-12 19,-31 19,-57 0,-28 -6,-47 -19,-60 -13,-12 -33,-18 -60,-18 -7,0 -14,0 -19,1 -6,0 -12,1 -18,2l0 148c6,1 12,1 17,1 6,1 12,1 19,1z"/>
   <polygon id="1" class="fil6" points="16198,7232 16198,6844 16279,6844 16279,7232 "/>
   <path id="2" class="fil6" d="M16525 7237c-34,0 -64,-7 -89,-21 -25,-14 -45,-35 -59,-65 -15,-29 -22,-67 -22,-113 0,-46 7,-84 22,-113 14,-29 34,-51 59,-65 25,-14 55,-21 89,-21 34,0 64,7 89,21 25,14 45,36 59,65 14,29 21,67 21,113 0,46 -7,84 -21,113 -14,30 -34,51 -59,65 -26,14 -55,21 -89,21zm0 -67c18,0 33,-4 46,-13 13,-8 22,-22 29,-41 7,-19 11,-44 11,-76 0,-33 -4,-60 -11,-79 -7,-20 -16,-34 -29,-42 -13,-9 -28,-13 -46,-13 -18,0 -33,4 -46,13 -13,8 -23,22 -30,41 -7,19 -10,44 -10,76 0,33 3,60 10,79 7,20 17,34 30,42 13,9 28,13 46,13z"/>
   <polygon id="3" class="fil6" points="16770,7232 16770,6844 16852,6844 17022,7126 17008,7126 17008,6844 17084,6844 17084,7232 17002,7232 16833,6950 16846,6950 16846,7232 "/>
   <path id="4" class="fil6" d="M17172 7232l0 -388 255 0 0 68 -175 0 0 253 177 0 0 67 -257 0zm53 -165l0 -67 175 0 0 67 -175 0z"/>
   <path id="5" class="fil6" d="M17502 7232l0 -380c11,-2 22,-5 35,-6 12,-2 25,-4 38,-5 13,-1 26,-1 40,-1 54,0 94,10 121,30 27,21 40,52 40,94 0,27 -6,50 -19,69 -13,19 -31,33 -54,42 -24,9 -52,14 -84,14 -8,0 -14,0 -20,0 -6,-1 -12,-1 -18,-1l0 144 -79 0zm217 0l-119 -179 86 0 121 179 -88 0zm-100 -205c27,0 48,-5 61,-15 13,-10 20,-26 20,-48 0,-14 -3,-26 -9,-36 -5,-9 -14,-16 -25,-20 -11,-5 -25,-7 -42,-7 -8,0 -16,1 -23,1 -7,1 -13,2 -20,3l0 120c5,0 9,1 13,1 4,0 8,1 12,1 4,0 9,0 13,0z"/>
   <path id="6" class="fil6" d="M17814 7232l116 -388 119 0 115 388 -80 0 -100 -351 9 0 -100 351 -79 0zm76 -104l16 -67 166 0 16 67 -198 0z"/>
   <path id="7" class="fil6" d="M18407 7232l0 -388 254 0 0 68 -174 0 0 253 176 0 0 67 -256 0zm53 -165l0 -67 174 0 0 67 -174 0z"/>
   <polygon id="8" class="fil6" points="18736,7232 18736,6844 18817,6844 18987,7126 18973,7126 18973,6844 19050,6844 19050,7232 18968,7232 18798,6950 18812,6950 18812,7232 "/>
   <path id="9" class="fil6" d="M19420 7236c-10,0 -21,0 -32,-1 -11,0 -22,-1 -33,-2 -11,0 -22,-1 -33,-3l0 -378c11,-2 23,-5 35,-6 13,-2 25,-4 38,-5 13,-1 26,-1 39,-1 66,0 116,16 150,48 33,32 50,82 50,150 0,46 -8,84 -24,113 -16,29 -39,51 -71,64 -32,14 -71,21 -119,21zm21 -67c24,0 44,-4 60,-13 17,-8 29,-22 37,-41 8,-19 12,-45 12,-77 0,-32 -4,-58 -12,-77 -8,-19 -21,-33 -37,-42 -16,-8 -36,-12 -60,-12 -5,0 -12,0 -19,1 -7,0 -13,1 -19,2l0 257c7,1 13,1 20,2 6,0 12,0 18,0z"/>
   <path id="10" class="fil6" d="M19710 7232l0 -388 254 0 0 68 -174 0 0 253 177 0 0 67 -257 0zm53 -165l0 -67 175 0 0 67 -175 0z"/>
   <polygon id="11" class="fil6" points="20040,7232 20040,6844 20140,6844 20246,7100 20236,7100 20340,6844 20439,6844 20439,7232 20363,7232 20363,6919 20379,6919 20273,7176 20207,7176 20097,6919 20116,6919 20116,7232 "/>
   <path id="12" class="fil6" d="M20685 7237c-34,0 -63,-7 -88,-21 -26,-14 -46,-35 -60,-65 -14,-29 -21,-67 -21,-113 0,-46 7,-84 21,-113 14,-29 34,-51 60,-65 25,-14 54,-21 88,-21 34,0 64,7 89,21 26,14 45,36 60,65 14,29 21,67 21,113 0,46 -7,84 -21,113 -15,30 -34,51 -60,65 -25,14 -55,21 -89,21zm0 -67c18,0 34,-4 46,-13 13,-8 23,-22 30,-41 7,-19 10,-44 10,-76 0,-33 -3,-60 -10,-79 -7,-20 -17,-34 -30,-42 -12,-9 -28,-13 -46,-13 -17,0 -33,4 -46,13 -12,8 -22,22 -29,41 -7,19 -11,44 -11,76 0,33 4,60 11,79 7,20 17,34 29,42 13,9 29,13 46,13z"/>
   <path id="13" class="fil6" d="M21106 7237c-29,0 -56,-4 -79,-11 -23,-8 -43,-19 -59,-35 -16,-16 -28,-36 -37,-61 -8,-25 -12,-56 -12,-91 0,-45 7,-83 22,-112 15,-30 37,-52 66,-66 29,-14 63,-22 104,-22 13,0 27,1 40,3 13,1 25,3 37,6l0 68c-11,-3 -23,-5 -35,-6 -11,-2 -23,-3 -36,-3 -25,0 -46,5 -63,13 -17,9 -29,22 -38,41 -8,19 -12,45 -12,77 0,33 4,59 12,78 9,19 21,32 38,41 16,8 37,12 62,12 11,0 23,-1 35,-3 12,-2 24,-6 37,-10l0 68c-11,4 -24,7 -38,9 -15,3 -29,4 -44,4z"/>
   <path id="14" class="fil6" d="M21255 7232l0 -380c11,-2 23,-5 35,-6 12,-2 25,-4 38,-5 13,-1 27,-1 40,-1 54,0 95,10 121,30 27,21 40,52 40,94 0,27 -6,50 -19,69 -12,19 -30,33 -54,42 -23,9 -51,14 -84,14 -7,0 -14,0 -20,0 -6,-1 -11,-1 -17,-1l0 144 -80 0zm217 0l-118 -179 85 0 121 179 -88 0zm-99 -205c27,0 47,-5 60,-15 13,-10 20,-26 20,-48 0,-14 -3,-26 -8,-36 -6,-9 -14,-16 -25,-20 -11,-5 -25,-7 -42,-7 -9,0 -17,1 -23,1 -7,1 -14,2 -20,3l0 120c4,0 8,1 12,1 4,0 8,1 12,1 5,0 9,0 14,0z"/>
   <path id="15" class="fil6" d="M21568 7232l115 -388 119 0 116 388 -80 0 -101 -351 9 0 -99 351 -79 0zm75 -104l16 -67 166 0 17 67 -199 0z"/>
   <path id="16" class="fil6" d="M22144 7237c-30,0 -56,-4 -79,-11 -24,-8 -43,-19 -59,-35 -17,-16 -29,-36 -37,-61 -9,-25 -13,-56 -13,-91 0,-45 8,-83 23,-112 15,-30 37,-52 65,-66 29,-14 64,-22 104,-22 14,0 27,1 40,3 13,1 26,3 38,6l0 68c-12,-3 -23,-5 -35,-6 -12,-2 -24,-3 -36,-3 -25,0 -46,5 -63,13 -17,9 -30,22 -38,41 -9,19 -13,45 -13,77 0,33 4,59 13,78 8,19 20,32 37,41 17,8 37,12 62,12 12,0 23,-1 35,-3 13,-2 25,-6 38,-10l0 68c-12,4 -24,7 -39,9 -14,3 -29,4 -43,4z"/>
   <polygon id="17" class="fil6" points="22292,7232 22292,6844 22373,6844 22373,7232 "/>
   <path id="18" class="fil6" d="M22432 7232l115 -388 120 0 115 388 -80 0 -100 -351 9 0 -100 351 -79 0zm75 -104l17 -67 166 0 16 67 -199 0z"/>
   <path id="19" class="fil6" d="M23123 7236c-11,0 -21,0 -32,-1 -11,0 -22,-1 -33,-2 -12,0 -23,-1 -34,-3l0 -378c12,-2 24,-5 36,-6 12,-2 25,-4 38,-5 13,-1 26,-1 39,-1 66,0 116,16 149,48 34,32 50,82 50,150 0,46 -7,84 -23,113 -16,29 -40,51 -71,64 -32,14 -72,21 -119,21zm20 -67c25,0 45,-4 61,-13 16,-8 28,-22 37,-41 8,-19 12,-45 12,-77 0,-32 -4,-58 -13,-77 -8,-19 -20,-33 -36,-42 -16,-8 -36,-12 -60,-12 -6,0 -12,0 -19,1 -7,0 -14,1 -20,2l0 257c7,1 14,1 20,2 6,0 13,0 18,0z"/>
   <polygon id="20" class="fil6" points="23413,7232 23413,6844 23494,6844 23494,7232 "/>
   <path id="21" class="fil6" d="M23779 7236c-46,0 -85,-7 -116,-21 -31,-14 -54,-35 -70,-64 -15,-29 -23,-67 -23,-112 0,-46 8,-83 24,-113 16,-29 39,-51 70,-65 31,-14 68,-22 112,-22 15,0 29,1 43,3 14,1 27,4 40,7l0 68c-13,-3 -26,-6 -38,-7 -12,-2 -25,-3 -37,-3 -30,0 -54,5 -73,13 -19,9 -33,23 -42,42 -9,19 -14,45 -14,78 0,31 4,56 13,75 9,19 22,32 39,41 17,8 39,13 64,13 9,0 18,-1 27,-1 9,-1 17,-2 25,-3l-30 25 0 -147 75 0 0 185c-15,3 -30,5 -45,6 -15,2 -30,2 -44,2z"/>
   <polygon id="22" class="fil6" points="23954,7232 23954,6844 24035,6844 24035,7232 "/>
   <polygon id="23" class="fil6" points="24209,7232 24209,6914 24094,6914 24094,6844 24405,6844 24405,6914 24290,6914 24290,7232 "/>
   <path id="24" class="fil6" d="M24393 7232l115 -388 120 0 115 388 -80 0 -100 -351 8 0 -99 351 -79 0zm75 -104l17 -67 166 0 16 67 -199 0z"/>
   <polygon id="25" class="fil6" points="24801,7232 24801,6844 24882,6844 24882,7162 25048,7162 25048,7232 "/>
  </g>
 </g>
</svg>