<?xml version="1.0" encoding="utf-8"?>
<!-- Generator: Adobe Illustrator 23.0.3, SVG Export Plug-In . SVG Version: 6.00 Build 0)  -->
<svg version="1.1" id="Capa_1" xmlns="http://www.w3.org/2000/svg" xmlns:xlink="http://www.w3.org/1999/xlink" x="0px" y="0px"
	 viewBox="0 0 1200 1200" enable-background="new 0 0 1200 1200" xml:space="preserve">
<g>
	<path fill="#93CE9A" d="M413.719,632.071c-0.493-2.011-2.106-3.188-3.451-4.538c-7.66-7.685-15.402-15.289-23.017-23.019
		c-9.138-9.277-18.37-18.473-27.192-28.043c-6.862-7.444-14.065-14.573-20.732-22.186c-9.521-10.871-19.11-21.688-27.913-33.175
		c-9.672-12.621-19.722-24.955-29.273-37.666c-7.959-10.591-15.588-21.436-22.777-32.582c-6.535-10.131-12.961-20.324-18.603-30.983
		c-2.706-5.112-5.133-10.371-7.754-15.529c-3.423-6.739-5.208-13.961-6.463-21.349c-0.291-1.713-0.092-3.36,0.75-4.908
		c0.461-0.847,0.999-1.67,1.325-2.568c0.907-2.499,3.993-4.201,7.193-3.527c2.812,0.592,5.657,1.093,8.357,2.231
		c7.374,3.11,14.334,6.873,20.414,12.152c6.367,5.527,12.759,11.026,19.158,16.515c4.024,3.451,8.081,6.862,12.125,10.289
		c4.778,4.05,9.601,8.049,14.323,12.163c4.177,3.639,8.257,7.389,12.356,11.117c6.596,5.999,13.123,12.075,19.774,18.012
		c4.67,4.169,9.526,8.13,14.245,12.245c2.543,2.217,4.966,4.571,7.457,6.846c4.091,3.736,8.18,7.476,12.311,11.168
		c0.512,0.458,1.272,0.639,1.922,0.941c0.481,1.653,1.576,2.916,2.746,4.101c0.234,0.237,0.798,0.149,1.21,0.21
		c-0.001-0.414,0.115-0.873-0.023-1.234c-0.598-1.57-1.409-3.016-2.783-4.064c-1.703-5.06-4.652-9.503-7.058-14.215
		c-0.876-1.716-1.929-3.341-2.819-5.051c-12.244-23.527-24.396-47.104-35.764-71.068c-9.298-19.601-17.732-39.567-25.201-59.958
		c-7.477-20.412-13.028-41.344-17.809-62.491c-2.067-9.142-3.553-18.425-4.918-27.721c-0.773-5.266-0.953-10.553-1.566-15.804
		c-0.505-4.323-1.056-8.627-0.727-12.951c0.457-6.014,1.279-11.998,4.384-17.353c0.839-1.447,1.846-2.821,2.936-4.091
		c1.806-2.104,4.097-3.12,6.959-3.271c6.633-0.35,12.979,0.734,19.037,3.371c7.985,3.476,15.488,7.752,22.358,13.184
		c7.594,6.003,14.486,12.728,21.196,19.661c10.093,10.428,18.747,22.004,26.91,33.964c7.343,10.759,13.995,21.949,20.639,33.144
		c5.167,8.706,10.331,17.414,15.496,26.12c2.335,3.936,4.666,7.874,7.023,11.797c0.094,0.156,0.567,0.289,0.637,0.215
		c0.27-0.281,0.609-0.643,0.625-0.989c0.034-0.712-0.021-1.462-0.218-2.146c-2.792-9.729-4.807-19.644-7.057-29.501
		c-3.534-15.489-6.873-31.018-9.805-46.637c-2.087-11.12-4.121-22.242-5.752-33.441c-1.109-7.617-2.512-15.192-3.597-22.813
		c-0.78-5.478-0.868-11.078-1.955-16.485c-1.531-7.613-0.604-15.425-2.333-22.982c-0.13-5.303-0.275-10.606-0.384-15.91
		c-0.049-2.408-0.138-4.787-0.528-7.192c-0.696-4.294-0.653-8.668,0.049-12.959c0.393-2.4,0.586-4.776,0.59-7.187
		c0.019-10.396,1.332-20.659,3.327-30.834c1.351-6.888,3.564-13.516,6.998-19.67c1.288-2.308,2.611-4.661,4.306-6.665
		c4.742-5.606,10.753-7.929,18.071-6.208c1.871,0.44,3.733,0.93,5.581,1.457c9.035,2.578,15.509,8.591,20.89,15.916
		c3.281,4.466,6.228,9.177,8.687,14.167c4.902,9.947,9.893,19.848,14.214,30.074c5.44,12.876,11.172,25.629,16.513,38.545
		c5.248,12.691,10.365,25.444,15.179,38.304c7.433,19.859,14.44,39.872,20.693,60.142c6.461,20.945,12.88,41.901,18.516,63.09
		c3.281,12.334,6.824,24.6,10.057,36.947c5.49,20.966,10.818,41.974,15.835,63.06c2.954,12.413,5.943,24.818,8.871,37.238
		c1.602,6.795,3.103,13.614,4.669,20.418c0.159,0.691,0.36,1.409,0.725,2.002c0.175,0.285,0.768,0.355,1.188,0.426
		c0.143,0.024,0.441-0.216,0.49-0.386c0.661-2.305,1.417-4.593,1.908-6.935c3.609-17.206,7.458-34.357,12.088-51.318
		c4.378-16.041,9.199-31.936,15.708-47.288c4.055-9.564,8.767-18.791,13.614-27.95c8.59-16.23,18.641-31.525,30.026-45.94
		c6.444-8.159,13.572-15.697,21.288-22.63c6.823-6.131,14.249-11.492,22.566-15.526c6.394-3.101,13.176-4.561,20.202-4.97
		c7.279-0.423,14.405,0.557,21.41,2.59c15.712,4.558,29.866,12.09,42.81,22.038c6.148,4.724,11.756,10.018,16.891,15.781
		c5.139,5.768,9.376,12.222,13.42,18.809c5.331,8.681,9.464,17.919,12.636,27.545c2.786,8.453,5.137,17.059,5.601,26.055
		c0.136,2.634,0.911,5.244,0.955,7.872c0.116,6.99-0.008,13.983-0.036,20.975c-1.47,8.775-1.339,17.785-3.864,26.405
		c-2.461,14.303-6.815,28.066-11.905,41.616c-0.847,2.254-1.826,4.459-2.675,6.713c-0.145,0.385,0.008,0.911,0.11,1.352
		c0.12,0.519,0.954,0.475,1.843-0.091c0.812-0.517,1.649-1.003,2.42-1.576c10.867-8.079,22.41-15.048,34.631-20.862
		c11.78-5.605,23.926-10.184,36.785-12.728c2.38-0.471,4.733-0.894,7.149-0.917c5.305-0.051,10.611-0.047,15.916-0.099
		c5.597-0.055,11.029,1.059,16.369,2.525c6.745,1.852,13.292,4.248,19.513,7.543c3.437,1.82,6.722,3.817,9.626,6.362
		c7.979,6.991,12.587,15.699,13.07,26.426c0.351,7.783-0.834,15.309-2.987,22.812c-3.872,13.494-8.92,26.47-15.443,38.899
		c-4.388,8.361-9.695,16.103-15.434,23.561c-8.089,10.512-16.75,20.537-25.738,30.295c-5.389,5.85-10.735,11.732-16.419,17.302
		c-6.72,6.585-13.807,12.75-21.113,18.667c-5.053,4.091-10.158,8.118-15.208,12.213c-0.216,0.175-0.156,0.746-0.127,1.126
		c0.007,0.085,0.441,0.232,0.649,0.193c10.878-2.036,21.746-4.125,32.631-6.121c3.311-0.607,6.662-1.013,10.005-1.425
		c5.495-0.676,10.998-1.276,16.497-1.918c2.15-0.251,4.298-0.524,6.445-0.796c0.478-0.061,0.948-0.227,1.424-0.236
		c8.913-0.173,17.728-1.754,26.68-1.583c14.873,0.286,29.205,2.937,42.861,8.914c6.444,2.82,12.489,6.261,17.335,11.528
		c1.818,1.975,3.354,4.097,4.47,6.531c2.449,5.34,2.46,10.743,0.298,16.145c-1.257,3.14-2.822,6.135-4.956,8.793
		c-3.167,3.946-6.326,7.898-9.53,11.814c-0.76,0.929-1.621,1.798-2.538,2.574c-6.073,5.132-12.031,10.413-18.298,15.298
		c-9.121,7.109-18.369,14.067-27.757,20.818c-7.039,5.062-14.307,9.821-21.615,14.493c-8.529,5.452-17.346,10.458-25.792,16.032
		c-9.25,6.104-18.344,12.463-27.28,19.018c-13.99,10.261-27.734,20.858-41.694,31.161c-8.336,6.152-16.827,12.099-25.351,17.99
		c-13.88,9.594-27.62,19.379-41.022,29.631c-3.635,2.781-7.157,5.716-10.636,8.692c-4.577,3.915-9.167,7.826-13.555,11.949
		c-4.23,3.974-8.735,7.575-13.396,11.01c-1.745,1.286-3.434,2.651-5.114,4.023c-1.502,1.227-2.712,2.657-3.637,4.425
		c-0.881,1.684-2.204,3.136-3.336,4.687c-0.557,0.763-0.498,1.814,0.165,2.646c0.301,0.377,0.591,0.764,0.914,1.122
		c8.567,9.477,17.281,18.821,25.904,28.245c13.032,14.243,26.919,27.632,40.375,41.448c13.463,13.823,27.211,27.367,40.763,41.104
		c16.769,16.999,33.502,34.034,50.167,51.135c4.705,4.829,9.031,10.026,13.689,14.903c4.998,5.234,9.744,10.683,14.465,16.161
		c4.462,5.177,7.832,10.986,10.221,17.36c1.444,3.852,2.246,7.909,2.504,11.979c0.351,5.549,0.407,6.246-3.306,10.547
		c-1.771,2.051-3.461,3.915-5.945,5.065c-2.185,1.012-4.281,2.219-6.393,3.382c-2.359,1.298-4.956,1.903-7.538,2.449
		c-1.374,0.29-2.929,0.283-4.292-0.046c-3.269-0.791-6.579-1.504-9.629-3.038c-4.52-2.274-9.034-4.508-13.239-7.391
		c-5.086-3.488-8.78-8.243-12.444-12.992c-5.444-7.058-10.636-14.315-15.824-21.567c-10.94-15.291-22.131-30.396-33.795-45.14
		c-7.325-9.26-14.925-18.303-22.393-27.45c-8.229-10.079-16.412-20.196-24.684-30.239c-5.977-7.256-12.127-14.368-18.091-21.634
		c-7.799-9.501-15.427-19.142-23.245-28.627c-11.047-13.402-21.043-27.587-31.274-41.598c-0.568-0.778-1.127-1.576-1.795-2.263
		c-0.677-0.695-1.493-1.186-2.573-0.897c-1.86,0.499-3.747,0.901-5.594,1.443c-11.1,3.257-22.337,5.919-33.744,7.859
		c-10.2,1.734-20.384,3.57-30.604,5.178c-5.226,0.822-10.518,1.219-15.774,1.854c-5.492,0.664-10.974,1.415-16.468,2.063
		c-2.151,0.254-4.322,0.347-6.485,0.484c-5.042,0.318-10.083,0.335-15.125,1.068c-4.504,0.654-9.144,0.393-13.724,0.507
		c-2.648,0.066-5.273,0.283-7.913,0.538c-4.054,0.391-8.204,0.41-12.254,0c-2.63-0.266-5.251-0.556-7.897-0.68
		c-4.808-0.226-9.649-0.095-14.376-1.298c-0.921-0.234-1.917-0.214-2.88-0.24c-6.287-0.165-12.422-1.462-18.598-2.464
		c-4.513-0.733-9.039-1.385-13.553-2.116c-15.208-2.463-30.416-4.938-45.304-8.998c-10.929-2.98-21.799-6.184-32.235-10.634
		c-8.221-3.505-16.247-7.423-22.995-13.462c-1.427-1.276-2.71-2.721-3.991-4.149c-1.315-1.466-2.039-3.273-2.56-5.139
		c-0.517-1.853-0.982-3.727-1.337-5.617c-1.384-7.368-0.361-11.469,5.605-18.499c2.699-3.18,6.147-5.401,10.261-6.445
		c2.799-0.71,5.563-1.634,8.403-2.087c4.988-0.796,10.041-1.187,15.033-1.962c6.666-1.034,13.419-1.175,20.091-2.17
		c3.085-0.46,6.252-0.411,9.384-0.519c5.292-0.182,10.568-0.209,15.854-0.936c4.27-0.586,8.665-0.303,13.005-0.327
		c9.406-0.052,18.812-0.046,28.218-0.083c1.429-0.006,2.858-0.114,4.672-0.191c-0.477-0.872-0.681-1.503-1.098-1.922
		c-0.299-0.299-0.873-0.378-1.341-0.446c-8.573-1.246-17.145-2.476-25.611-4.364c-3.284-0.732-6.632-1.186-9.959-1.716
		c-15.463-2.459-30.754-5.729-45.895-9.703c-12.343-3.239-24.696-6.445-37.007-9.805c-7.898-2.156-15.723-4.581-23.59-6.856
		c-12.492-3.612-25.016-7.119-37.48-10.825c-8.772-2.608-17.487-5.416-26.194-8.234c-13.752-4.451-27.504-8.902-41.202-13.515
		c-9.595-3.231-19.044-6.872-28.042-11.567c-2.133-1.113-4.123-2.504-6.272-3.582c-3.077-1.546-4.545-4.083-5.211-7.336
		c-0.53-2.589,1.007-5.715,3.493-6.272c2.814-0.631,5.661-1.267,8.525-1.492c5.516-0.432,11.084-0.146,16.559-1.199
		c8.681-0.01,17.364,0.076,26.043-0.061c6.527-0.104,12.943,1.131,19.448,1.277c5.288,0.118,10.564,0.301,15.842,1.116
		c4.498,0.694,9.144,0.393,13.717,0.654c3.121,0.178,6.226,0.607,9.345,0.843c3.122,0.237,6.251,0.378,9.377,0.554
		c3.843,0.217,7.666,0.364,11.505,0.962c4.263,0.664,8.655,0.511,12.993,0.672c3.852,0.143,7.692,0.185,11.507,0.992
		c2.097,0.443,4.32,0.302,6.487,0.399c4.807,0.216,9.612,0.176,14.393,1.09c2.811,0.538,5.77,0.277,8.659,0.439
		c5.765,0.324,11.531,0.281,17.289,1.2c4.71,0.752,9.57,0.683,14.446,0.556c-0.133-0.545-0.116-0.915-0.259-0.992
		c-1.023-0.557-2.033-1.194-3.131-1.552c-18.337-5.975-36.308-12.956-54.294-19.878c-10.115-3.893-20.006-8.366-30.012-12.543
		c-9.357-3.906-18.368-8.53-27.325-13.246c-8.53-4.491-16.956-9.185-25.363-13.906c-7.986-4.485-15.891-9.113-23.823-13.692
		c-14.416-8.32-28.534-17.125-41.787-27.206c-8.242-6.27-16.389-12.7-23.728-20.066c-1.528-1.533-3.215-2.907-4.822-4.362
		c-0.893-0.809-1.856-1.561-2.642-2.465c-7.115-8.174-14.721-15.919-21.049-24.782c-2.673-3.744-5.012-7.665-7.369-11.583
		c-3.284-5.457-4.706-11.574-5.761-17.779c-0.832-4.893,1.055-9.01,3.962-12.708c0.853-1.085,2.164-1.98,3.451-2.517
		c2.212-0.923,4.527-1.651,6.998-1.645c6.259,0.016,12.548-0.483,18.708,1.147c14.373,1.882,28.362,5.49,42.167,9.761
		c7.586,2.347,14.988,5.303,22.429,8.102c15.345,5.772,30.246,12.597,45.278,19.118c11.713,5.081,23.542,9.902,35.408,14.616
		c11.87,4.716,23.697,9.521,35.397,14.644c10.157,4.448,20.271,8.982,30.161,14.004c0.845,0.429,1.811,0.62,2.722,0.92
		c0.537,0.339,1.038,0.782,1.623,0.975c0.276,0.091,0.722-0.278,1.06-0.488c0.043-0.026-0.043-0.438-0.17-0.529
		C414.821,632.722,414.263,632.407,413.719,632.071z M541.872,643.501c-1.235-0.056-2.318-0.454-3.322-1.217
		c-5.736-4.354-11.693-8.404-17.429-12.768c-7.254-5.518-14.575-10.951-21.826-16.477c-2.872-2.188-5.439-4.793-8.425-6.741
		c-6.472-4.222-11.924-9.667-17.968-14.394c-4.331-3.387-8.882-6.612-12.496-10.868c-0.456-0.538-1.076-1.005-1.713-1.308
		c-2.02-0.958-3.431-2.62-5.003-4.106c-1.049-0.991-2.002-2.185-3.233-2.862c-2.6-1.432-4.498-3.602-6.578-5.596
		c-1.564-1.5-2.941-3.317-4.753-4.41c-2.957-1.784-5.182-4.287-7.616-6.604c-1.738-1.655-3.275-3.528-5.499-4.639
		c-0.84-0.419-1.557-1.131-2.247-1.796c-4.151-4.002-8.126-8.155-12.823-11.605c-3.263-2.397-5.81-5.681-9.272-7.985
		c-2.365-1.573-4.105-4.056-6.264-5.974c-2.149-1.908-4.623-3.462-6.688-5.449c-4.508-4.335-9.855-7.712-14.037-12.406
		c-0.151-0.17-0.403-0.322-0.623-0.344c-0.446-0.046-0.915-0.06-1.351,0.028c-0.571,0.116-0.727,1.319-0.274,1.89
		c0.448,0.564,0.853,1.17,1.356,1.679c6.276,6.337,12.56,12.664,18.86,18.977c0.848,0.849,1.682,1.81,2.714,2.36
		c2.625,1.397,4.513,3.59,6.546,5.63c9.866,9.905,19.707,19.835,29.574,29.739c1.358,1.362,2.652,2.892,4.264,3.871
		c2.316,1.407,4.151,3.272,6.022,5.139c3.413,3.405,6.803,6.832,10.212,10.24c1.022,1.022,1.932,2.261,3.145,2.969
		c4.251,2.478,7.224,6.333,10.743,9.595c1.587,1.471,3.055,3.14,4.85,4.296c1.858,1.197,3.401,2.666,4.953,4.172
		c1.21,1.175,2.238,2.665,3.654,3.479c4.646,2.67,7.629,7.37,12.365,9.884c5.546,5.336,12.113,9.447,17.703,14.734
		c0.688,0.651,1.625,1.032,2.363,1.64c5.185,4.273,10.941,7.817,15.865,12.424c0.699,0.654,1.461,1.263,2.269,1.776
		c6.693,4.253,12.732,9.44,19.514,13.574c2.687,1.638,5.104,3.811,6.553,6.61c2.765,5.344,5.789,10.546,8.555,15.877
		c3.331,6.417,7.105,12.549,10.833,18.72c2.359,3.906,4.776,7.778,7.136,11.684c2.859,4.729,5.668,9.488,8.534,14.213
		c2.242,3.696,4.546,7.353,6.798,11.044c0.243,0.398,0.336,0.894,0.457,1.356c0.059,0.227,0.119,0.616,0.009,0.695
		c-0.366,0.262-0.885,0.671-1.21,0.573c-3.442-1.037-6.937-1.962-10.265-3.297c-10.703-4.292-21.299-8.856-32.029-13.077
		c-3.818-1.502-7.403-3.522-11.236-4.892c-7.481-2.673-14.587-6.208-21.953-9.139c-4.465-1.776-8.804-3.865-13.238-5.721
		c-3.987-1.669-8.048-3.161-12.038-4.825c-4.214-1.757-8.354-3.692-12.576-5.43c-6.441-2.651-12.923-5.204-19.391-7.79
		c-3.568-1.426-7.099-2.961-10.726-4.218c-5.678-1.967-11.3-4.128-16.848-6.376c-7.136-2.891-14.478-5.177-21.613-8.063
		c-9.128-3.691-18.728-6.046-28.227-8.606c-2.782-0.75-5.523-1.635-8.31-2.359c-4.4-1.143-8.704-2.83-13.388-2.382
		c-0.228-0.697-0.447-0.815-0.563-0.333c-0.014,0.057,0.373,0.21,0.575,0.319c0.546,0.447,1.024,1.072,1.65,1.313
		c3.799,1.461,7.64,2.801,11.51,4.077c3.409,1.124,6.776,2.452,10.166,3.683c6.552,2.38,13.03,4.962,19.524,7.499
		c6.273,2.45,12.453,5.112,18.625,7.813c7.27,3.181,14.651,6.103,21.738,9.695c1.29,0.654,2.546,1.416,3.899,1.9
		c7.722,2.763,14.924,6.697,22.35,10.101c8.967,4.11,18.146,7.808,26.789,12.617c0.421,0.234,0.843,0.504,1.3,0.629
		c4.225,1.162,7.93,3.476,11.848,5.317c7.407,3.48,14.805,6.981,22.211,10.463c0.652,0.306,1.34,0.533,2.004,0.814
		c4.872,2.056,9.808,3.975,14.596,6.212c5.677,2.652,11.48,4.955,17.391,7c5.229,1.809,10.456,3.634,15.728,5.311
		c5.492,1.746,10.973,3.611,16.584,4.866c3.336,0.746,5.751,2.18,7.467,5.018c0.622,1.028,1.278,2.037,1.953,3.032
		c5.404,7.952,10.76,15.938,16.253,23.828c2.468,3.545,5.204,6.903,7.84,10.33c2.633,3.424,5.309,6.815,7.937,10.243
		c2.486,3.242,4.832,6.581,7.807,9.438c1.766,1.696,2.581,4.039,3.385,6.324c0.205,0.583-0.504,1.44-1.127,1.516
		c-1.767,0.216-3.27-0.695-4.902-1.018c-2.114-0.419-4.406-0.159-6.416-0.817c-2.36-0.774-4.696-0.963-7.106-1.044
		c-0.958-0.032-2.002,0.007-2.853-0.351c-3.838-1.613-8.171-0.706-11.965-2.441c-3.889,0.14-7.602-0.939-11.38-1.6
		c-3.775-0.66-7.477-1.794-11.351-1.856c-6.918-2.042-14.129-2.594-21.136-4.171c-3.519-0.792-7.027-1.566-10.641-1.742
		c-6.912-2.066-14.113-2.667-21.139-4.154c-3.282-0.695-6.579-1.32-9.867-1.985c-4.457-0.902-8.824-2.284-13.413-2.493
		c-0.715-0.032-1.441-0.162-2.129-0.359c-6.699-1.916-13.661-2.484-20.437-4.013c-3.738-0.843-7.509-1.539-11.244-2.393
		c-3.039-0.695-6.139-1.026-9.166-1.861c-2.275-0.628-4.743-0.244-7.087-1.152c-2.442-0.946-5.16-0.895-7.739-1.586
		c-2.748-0.738-5.619-1.416-8.443-1.713c-4.8-0.505-9.418-1.751-14.125-2.623c-3.765-0.697-7.582-1.098-11.328-1.949
		c-0.915-0.208-1.927-0.076-2.882,0.018c-0.32,0.032-0.603,0.433-0.903,0.665c0.163,0.177,0.303,0.476,0.493,0.512
		c1.647,0.312,3.386,0.344,4.943,0.897c6.13,2.176,12.493,3.47,18.759,5.115c12.532,3.29,25.117,6.379,37.674,9.576
		c6.512,1.658,12.938,3.774,19.534,4.937c5.919,1.043,11.647,2.811,17.563,3.855c5.409,0.954,10.649,2.876,16.094,3.805
		c5.433,0.927,10.592,3.238,16.214,3.192c4.789,1.618,9.773,2.425,14.696,3.469c6.092,1.292,12.212,2.457,18.312,3.715
		c3.524,0.727,7.086,1.233,10.622,1.845c5.422,0.937,10.699,2.694,16.287,2.702c0.7,0.001,1.432,0.241,2.094,0.508
		c1.599,0.645,3.255,0.818,4.956,0.851c3.362,0.064,6.738-0.162,9.984,1.199c1.052,0.441,2.378,0.271,3.58,0.297
		c2.411,0.053,4.824,0.041,7.235,0.07c2.406,0.029,4.775,0.033,7.115,0.943c2.049,0.797,4.294,0.784,6.358-0.149
		c2.327-1.052,4.171-0.49,5.849,1.294c1.982,2.108,4.388,3.919,5.952,6.293c2.018,3.062,4.5,5.634,6.946,8.284
		c0.487,0.528,0.993,1.091,1.294,1.729c0.951,2.019,2.554,3.488,4.051,5.054c1.33,1.391,2.514,2.88,3.658,4.446
		c3.424,4.685,7.543,8.797,12.104,12.343c2.087,1.623,4.089,3.348,6.148,5.001c0.196,0.157,0.023,0.774,0.021,1.271
		c-6.052-0.027-12.079-0.02-18.105-0.104c-1.429-0.02-2.932-0.112-4.262-0.573c-2.111-0.731-4.239-0.837-6.412-0.846
		c-21.708-0.094-43.415-0.201-65.123-0.265c-1.672-0.005-3.442-0.013-4.994,0.502c-2.365,0.784-4.731,0.825-7.14,0.82
		c-10.13-0.021-20.261-0.07-30.391-0.056c-1.917,0.003-3.951-0.116-5.722,0.461c-2.613,0.85-5.213,0.851-7.859,0.86
		c-3.377,0.012-6.754-0.016-10.13-0.008c-2.886,0.007-5.739-0.063-8.57,0.94c-1.526,0.541-3.331,0.378-5.01,0.388
		c-5.547,0.033-11.095-0.023-16.643,0.005c-1.682,0.009-3.485-0.175-5.017,0.354c-2.827,0.978-5.672,0.995-8.563,0.997
		c-0.965,0.001-1.967-0.132-2.887,0.08c-3.281,0.758-6.568,1.328-9.938,1.624c-1.483,0.131-3.346,0.417-4.358,2.044
		c1.261,0.974,2.707,0.507,4.047,0.517c15.195,0.114,30.391,0.17,45.586,0.261c3.122,0.019,6.239-0.144,9.28,1.038
		c1.289,0.501,2.85,0.394,4.288,0.402c20.984,0.114,41.968,0.206,62.952,0.279c1.439,0.005,3.002,0.144,4.295-0.343
		c3.049-1.15,6.161-0.983,9.285-0.989c4.342-0.008,8.683,0.04,13.025,0.016c3.6-0.02,7.193,0.229,10.728-1.035
		c1.517-0.542,3.34-0.29,5.024-0.292c6.995-0.008,13.989,0.039,20.984,0.037c3.362-0.001,6.721,0.242,10.005-1.012
		c1.287-0.491,2.858-0.298,4.301-0.308c4.1-0.029,8.201,0.007,12.301-0.001c1.446-0.003,2.913,0.08,4.332-0.13
		c1.656-0.244,3.256-0.839,4.907-1.144c1.637-0.302,3.38,0.142,5.264-0.805c0.518-1.02,1.031-2.367,1.831-3.513
		c0.82-1.175,1.962-2.12,2.887-3.229c0.767-0.918,1.448-1.913,2.127-2.901c1.908-2.775,3.704-5.633,5.712-8.332
		c3.152-4.237,6.186-8.55,10.034-12.255c7.819-7.527,15.461-15.237,23.183-22.864c1.029-1.016,1.955-2.253,3.182-2.93
		c3.677-2.026,6.297-5.209,9.258-8.018c2.624-2.489,4.907-5.456,7.85-7.465c4.241-2.895,7.632-6.614,11.32-10.056
		c1.233-1.151,2.297-2.606,3.729-3.399c3.247-1.797,5.58-4.566,8.213-7.024c1.586-1.481,2.944-3.337,4.767-4.404
		c3.41-1.996,5.91-4.925,8.738-7.525c1.595-1.466,3.019-3.211,4.83-4.329c2.3-1.422,4.16-3.257,6.094-5.062
		c1.407-1.313,2.724-2.815,4.351-3.776c2.127-1.256,3.795-2.951,5.53-4.613c2.09-2.002,3.921-4.387,6.295-5.953
		c3.674-2.423,6.677-5.505,9.804-8.496c0.869-0.831,1.7-1.794,2.736-2.339c2.406-1.266,4.213-3.192,6.121-5.027
		c1.733-1.667,3.343-3.464,5.565-4.566c0.841-0.417,1.549-1.14,2.249-1.798c3.502-3.293,6.684-6.939,10.897-9.432
		c1.01-0.598,1.751-1.645,2.631-2.47c0.879-0.824,1.656-1.862,2.689-2.398c3.076-1.598,5.262-4.19,7.728-6.478
		c0.882-0.818,1.694-1.806,2.73-2.346c2.414-1.257,4.206-3.201,6.137-5.01c0.877-0.822,1.715-1.776,2.755-2.315
		c2.419-1.253,4.117-3.309,6.126-5.023c2.005-1.711,4.271-3.123,6.231-4.88c3.043-2.728,5.778-5.78,9.363-7.9
		c1.471-0.87,2.335-2.418,2.307-4.275c0.45-0.044,0.914-0.035,1.348-0.145c0.675-0.171,0.746-0.551,0.178-0.929
		c-0.147-0.098-0.508-0.062-0.649,0.057c-0.337,0.284-0.602,0.654-0.897,0.989c-1.232,0.069-2.293,0.511-3.334,1.206
		c-7.989,5.346-15.985,10.679-23.831,16.241c-4.505,3.193-9.041,6.357-13.555,9.534c-7.064,4.97-14.084,10.019-21.019,15.177
		c-4.624,3.439-9.232,6.901-13.797,10.416c-4.945,3.808-10.244,7.161-14.784,11.489c-6.118,3.841-11.378,8.82-17.232,13.01
		c-3.129,2.24-5.946,4.908-9.064,7.108c-3.739,2.638-7.199,5.619-10.748,8.453c-3.928,3.138-8.287,5.819-11.612,9.699
		c-0.305,0.356-0.731,0.653-1.16,0.851c-2.249,1.04-3.844,2.875-5.598,4.52c-0.878,0.823-1.671,1.839-2.705,2.376
		c-2.857,1.483-4.914,3.856-7.187,5.998c-0.877,0.827-1.646,1.864-2.672,2.419c-3.69,1.998-6.288,5.213-9.278,7.992
		c-3.694,3.434-6.889,7.42-11.352,10.005c-1.014,0.587-1.778,1.615-2.635,2.462c-3.602,3.56-7.203,7.121-10.787,10.7
		c-1.023,1.021-2.25,1.955-2.926,3.181c-1.672,3.034-4.271,5.197-6.582,7.639c-1.323,1.399-2.818,2.695-3.867,4.282
		c-3.314,5.011-6.887,9.858-9.404,15.379c-1.797,3.942-3.938,7.729-5.946,11.573c-0.403,0.771-1.868,0.958-2.556,0.374
		c-0.551-0.468-1.121-0.919-1.628-1.43c-4.605-4.64-8.134-10.089-11.588-15.583c-3.582-5.697-6.99-11.505-10.63-17.164
		c-5.465-8.496-11.035-16.925-16.636-25.333c-0.999-1.5-1.35-3.034-1.325-4.764c0.025-1.705,0.339-3.311,0.93-4.931
		c3.046-8.358,5.548-16.894,8.955-25.146c4.224-10.229,8.326-20.495,13.389-30.349c2.203-4.288,4.349-8.606,6.5-12.92
		c2.582-5.176,5.675-10.049,8.829-14.883c3.417-5.237,6.745-10.541,10.372-15.63c3.905-5.479,7.113-11.456,11.694-16.453
		c1.54-3.646,5.334-5.581,6.958-9.164c4.772-5.401,8.453-11.658,13.544-16.841c3.006-3.06,5.297-6.809,8.051-10.132
		c3.064-3.697,5.514-7.897,9.146-11.133c0.711-0.633,1.296-1.426,1.859-2.204c3.098-4.281,6.06-8.662,9.906-12.351
		c0.855-0.82,1.457-1.901,2.191-2.85c2.351-3.036,4.461-6.309,7.126-9.04c3.546-3.635,6.062-8.093,9.75-11.576
		c1.132-2.483,3.265-4.139,5.001-6.13c1.891-2.167,3.521-4.562,5.427-6.715c3.185-3.597,5.706-7.761,9.372-10.948
		c0.354-0.307,0.642-0.739,0.839-1.169c0.825-1.802,2.234-3.124,3.587-4.499c1.689-1.716,3.093-3.666,4.606-5.521
		c2.578-3.161,5.008-6.458,7.723-9.499c3.201-3.586,5.65-7.811,9.365-10.955c0.357-0.302,0.653-0.731,0.851-1.16
		c0.933-2.029,2.595-3.451,4.07-5.036c1.146-1.232,2.317-2.458,3.31-3.81c3.271-4.455,6.431-8.994,10.467-12.826
		c0.339-0.322,0.657-0.763,0.764-1.202c0.098-0.401,0.036-0.999-0.213-1.284c-0.253-0.289-1.018-0.556-1.222-0.397
		c-1.704,1.321-3.175,3.008-5.011,4.08c-4.039,2.356-6.978,5.89-10.32,8.995c-1.588,1.476-2.977,3.283-4.798,4.364
		c-2.759,1.639-4.861,3.924-7.145,6.053c-4.393,4.096-8.202,8.836-13.433,12.013c-1.004,0.61-1.755,1.643-2.611,2.491
		c-17.472,17.316-34.944,34.633-52.411,51.955c-1.027,1.018-2.268,1.935-2.959,3.155c-2.069,3.65-5.265,6.248-8.104,9.181
		c-2.515,2.599-5.47,4.873-7.532,7.785c-2.539,3.584-5.613,6.583-8.605,9.707c-0.832,0.868-1.801,1.69-2.354,2.722
		c-1.285,2.397-3.25,4.167-5.087,6.07c-1.171,1.213-2.465,2.346-3.44,3.704c-4.202,5.854-8.842,11.386-13.008,17.247
		c-7.66,10.779-14.938,21.855-21.313,33.439c-5.101,9.269-10.178,18.6-13.928,28.556c-1.016,2.698-2.194,5.335-3.304,7.997
		c-4.354,10.435-8.38,20.985-11.079,31.991c-1.427,5.818-3.399,11.505-4.071,17.511c-0.125,1.119-0.984,2.163-1.538,3.224
		c-0.307,0.589-1.56,0.784-1.863,0.296c-2.027-3.257-4.075-6.503-6.036-9.8c-0.984-1.654-1.73-3.448-2.705-5.107
		c-2.435-4.145-4.892-8.278-7.428-12.361c-2.415-3.888-4.335-8.071-6.768-11.916c-3.241-5.122-5.648-10.629-8.352-16
		c-0.527-1.047-0.994-2.299-0.944-3.432c0.277-6.221-0.975-12.545,1.184-18.652c0.234-0.664,0.301-1.437,0.248-2.144
		c-0.351-4.641,1.996-8.924,1.761-13.543c1.599-4.794,2.342-9.79,3.484-14.692c1.198-5.14,2.396-10.287,3.832-15.363
		c1.698-6.005,2.944-12.127,5.012-18.038c7.701-22.021,14.761-44.258,22.745-66.188c4.523-12.423,9.012-24.868,13.254-37.395
		c0.154-0.456,0.295-0.918,0.485-1.358c4.089-9.499,7.294-19.34,11.193-28.913c1.269-3.117,2.572-6.224,3.688-9.397
		c0.88-2.504,1.797-4.974,3.031-7.329c0.669-1.278,1.317-2.587,1.782-3.947c2.496-7.292,5.887-14.212,8.905-21.281
		c3.116-7.299,6.707-14.395,10.092-21.58c0.308-0.654,0.715-1.278,0.92-1.962c1.536-5.12,4.365-9.642,6.622-14.427
		c0.822-1.743,1.715-3.453,2.515-5.205c0.189-0.415,0.174-0.939,0.181-1.413c0.003-0.21-0.126-0.556-0.276-0.608
		c-0.384-0.133-0.999-0.338-1.193-0.158c-0.874,0.808-1.773,1.651-2.411,2.643c-2.86,4.449-5.643,8.947-8.435,13.438
		c-2.791,4.49-5.876,8.803-8.18,13.589c-0.625,1.299-1.357,2.553-2.106,3.787c-3.367,5.55-6.791,11.071-9.743,16.857
		c-5.258,10.307-10.45,20.648-15.666,30.976c-0.761,1.506-1.701,2.959-2.209,4.548c-1.182,3.7-3.064,7.058-4.711,10.537
		c-1.749,3.693-3.283,7.487-4.948,11.22c-2.156,4.833-4.645,9.542-6.435,14.505c-1.398,3.875-3.432,7.423-4.906,11.241
		c-2.423,6.277-4.964,12.51-7.519,18.735c-3.469,8.452-6.671,17.007-9.859,25.565c-2.099,5.633-3.941,11.363-5.814,17.078
		c-1.646,5.024-3.33,10.043-4.72,15.141c-2.459,9.021-4.892,18.058-6.195,27.345c-1.452,3.597-1.266,7.576-2.606,11.199
		c0.344,4.156-1.959,7.945-1.678,12.104c0.047,0.691-0.158,1.459-0.446,2.102c-1.023,2.291-0.883,4.71-0.93,7.116
		c-0.08,4.08,0.041,8.168-0.199,12.201c-0.667-0.003-1.314,0.182-1.52-0.042c-0.637-0.688-1.192-1.487-1.624-2.323
		c-1.99-3.855-3.665-7.901-5.963-11.559c-1.933-3.077-3.593-6.263-5.199-9.492c-5.262-10.575-10.488-21.168-15.72-31.757
		c-0.854-1.729-1.929-3.405-2.441-5.235c-1.119-3.997-3.327-7.474-4.957-11.221c-1.727-3.968-3.465-7.932-5.209-11.892
		c-2.328-5.284-4.923-10.469-6.911-15.878c-1.337-3.636-3.161-7.021-4.569-10.602c-1.67-4.249-3.308-8.512-4.977-12.761
		c-2.197-5.593-4.51-11.143-6.592-16.777c-2.669-7.22-5.638-14.324-8.782-21.332c-3.35-7.468-6.141-15.154-9.421-22.65
		c-4.039-9.233-7.063-18.905-10.839-28.261c-1.803-4.467-3.316-9.026-5.027-13.519c-2.224-5.839-4.414-11.692-6.522-17.574
		c-1.702-4.749-2.999-9.629-4.452-14.456c-2.491-8.281-4.768-16.617-7.182-24.917c-2.616-8.992-5.118-18.008-7.415-27.083
		c-1.59-6.281-3.348-12.536-4.544-18.894c-0.711-3.779-1.648-7.491-2.44-11.242c-0.792-3.753-1.49-7.526-2.283-11.278
		c-0.297-1.406-1.053-2.777-1.067-4.169c-0.032-3.202-1.659-6.041-1.815-9.184c-1.533-2.839-1.13-6.098-2.011-9.119
		c-2.081-7.132-2.813-14.584-4.668-21.786c-0.137-6.774-2.551-13.167-3.321-19.85c-0.408-3.547-1.895-6.977-2.24-10.523
		c-0.374-3.837-2.151-7.44-1.723-11.372c-1.666-5.525-2.488-11.221-3.468-16.889c-0.571-3.303-1.558-6.543-1.991-9.86
		c-0.779-5.964-2.489-11.722-3.728-17.577c-2.284-10.791-5.189-21.45-7.725-32.19c-0.567-2.401-1.527-4.556-2.867-6.569
		c-0.183-0.275-0.791-0.267-1.456-0.466c-0.007,1.509-0.064,2.948-0.008,4.384c0.102,2.64-0.099,5.367,0.517,7.89
		c0.584,2.391,0.812,4.727,0.813,7.135c0.002,3.618-0.028,7.235-0.003,10.853c0.01,1.443-0.216,3.015,0.265,4.305
		c1.398,3.754,1.001,7.606,1.101,11.444c0.057,2.163-0.215,4.458,0.418,6.454c0.981,3.092,0.881,6.172,0.961,9.293
		c0.061,2.399-0.35,4.852,0.526,7.171c0.698,1.848,0.828,3.739,0.88,5.677c0.039,1.435-0.002,2.967,0.483,4.274
		c0.871,2.345,0.827,4.721,0.903,7.127c0.061,1.919-0.058,3.923,0.461,5.728c0.611,2.126,0.942,4.218,0.922,6.398
		c-0.016,1.699,0.208,3.341,0.758,4.973c0.378,1.121,0.556,2.348,0.595,3.536c0.128,3.841-0.084,7.672,1.251,11.43
		c0.624,1.756,0.12,3.905,0.704,5.687c0.776,2.368,0.857,4.721,0.883,7.129c0.025,2.405,0.156,4.75,0.792,7.139
		c0.983,3.692,0.832,7.623,1.959,11.32c-0.134,4.347,0.12,8.652,1.388,12.849c0.068,0.224,0.031,0.48,0.047,0.72
		c0.314,4.784,1.993,9.416,1.556,14.292c-0.061,0.679,0.353,1.389,0.477,2.097c0.288,1.65,0.535,3.306,0.794,4.961
		c0.186,1.184,0.186,2.433,0.586,3.539c0.674,1.863,0.724,3.758,0.842,5.686c0.102,1.665,0.444,3.317,0.711,4.97
		c0.19,1.182,0.635,2.362,0.606,3.533c-0.061,2.47,0.873,4.714,1.269,7.07c0.436,2.592,0.05,5.319,1.303,7.782
		c0.634,5.49,2.148,10.816,3.042,16.25c0.975,5.923,2.652,11.681,3.76,17.571c0.93,4.945,2.259,9.818,3.481,14.705
		c2.797,11.181,5.589,22.364,9.338,33.279c0.7,2.037,1.27,4.121,1.804,6.208c0.072,0.282-0.375,0.745-0.664,1.045
		c-0.096,0.099-0.567,0.035-0.672-0.102c-5.408-7.048-10.428-14.376-15.513-21.656c-3.164-4.529-5.753-9.458-9.497-13.581
		c-5.108-8.441-11.064-16.308-16.557-24.488c-4.424-6.589-8.769-13.231-13.15-19.85c-5.045-7.622-10.422-15.047-15.049-22.915
		c-5.369-9.13-11.386-17.829-16.973-26.809c-7.618-12.243-15.586-24.274-24.062-35.956c-4.511-6.217-8.773-12.617-13.885-18.383
		c-1.109-1.251-1.951-2.733-2.99-4.051c-0.262-0.333-0.793-0.479-1.227-0.641c-0.204-0.077-0.594-0.082-0.685,0.041
		c-0.263,0.355-0.46,0.776-0.594,1.2c-0.06,0.19,0.04,0.478,0.154,0.671c5.103,8.712,10.584,17.192,15.676,25.918
		c5.456,9.349,11.029,18.622,15.982,28.252c0.331,0.643,0.557,1.363,0.989,1.926c2.52,3.281,4.036,7.112,5.975,10.712
		c1.938,3.599,4.034,7.112,5.977,10.708c3.547,6.563,7.031,13.161,10.547,19.741c0.34,0.636,0.64,1.317,1.095,1.864
		c1.724,2.069,2.634,4.588,3.931,6.892c1.415,2.513,2.948,4.959,4.373,7.467c2.376,4.183,4.662,8.417,7.07,12.58
		c1.684,2.912,3.496,5.75,5.272,8.607c2.792,4.491,5.754,8.885,8.366,13.478c3.569,6.277,7.433,12.367,11.364,18.408
		c9.442,14.513,19.048,28.92,28.602,43.36c0.926,1.399,1.932,2.745,2.931,4.095c3.429,4.631,6.93,9.21,10.288,13.892
		c2.097,2.925,3.777,6.136,6.349,8.734c2.706,2.734,4.346,6.362,7.353,8.869c1.519,1.266,2.504,2.971,3.125,4.803
		c1.935,5.704,4.693,11.064,6.836,16.68c2.227,5.837,4.499,11.657,6.778,17.474c2.192,5.594,4.273,11.238,6.666,16.747
		c3.164,7.283,6.583,14.455,9.896,21.672c0.402,0.876,0.808,1.752,1.249,2.609C541.859,640.609,541.877,642.051,541.872,643.501z
		 M367.261,503.311c0.208-0.061,0.524-0.059,0.604-0.196c0.215-0.365,0.567-0.892,0.446-1.174c-0.855-1.989-2.171-3.533-4.492-3.765
		c-0.377-0.038-0.819,0.31-1.18,0.554c-0.083,0.056-0.025,0.462,0.082,0.638c0.97,1.602,2.241,2.913,3.88,3.841
		C366.781,503.312,367.038,503.28,367.261,503.311z"/>
	<path fill="#74AD7D" d="M931.039,681.411c0.028,1.856-0.837,3.405-2.307,4.274c-3.585,2.119-6.32,5.172-9.363,7.9
		c-1.96,1.757-4.225,3.169-6.231,4.88c-2.009,1.714-3.706,3.77-6.126,5.023c-1.04,0.539-1.878,1.493-2.755,2.315
		c-1.932,1.809-3.723,3.753-6.137,5.01c-1.037,0.54-1.848,1.527-2.73,2.346c-2.466,2.287-4.652,4.88-7.728,6.478
		c-1.033,0.536-1.81,1.574-2.689,2.398c-0.879,0.825-1.62,1.872-2.631,2.47c-4.213,2.492-7.395,6.139-10.897,9.432
		c-0.699,0.658-1.408,1.381-2.249,1.798c-2.223,1.101-3.832,2.899-5.565,4.566c-1.908,1.835-3.715,3.76-6.121,5.027
		c-1.036,0.545-1.867,1.508-2.736,2.339c-3.128,2.992-6.13,6.073-9.804,8.496c-2.374,1.566-4.206,3.95-6.295,5.953
		c-1.735,1.662-3.403,3.357-5.53,4.613c-1.627,0.961-2.944,2.463-4.351,3.776c-1.934,1.805-3.794,3.64-6.094,5.062
		c-1.81,1.119-3.234,2.863-4.83,4.329c-2.828,2.6-5.329,5.529-8.738,7.525c-1.823,1.067-3.182,2.923-4.767,4.404
		c-2.632,2.458-4.966,5.227-8.213,7.024c-1.431,0.793-2.495,2.247-3.729,3.399c-3.688,3.442-7.08,7.161-11.32,10.056
		c-2.943,2.009-5.225,4.976-7.85,7.465c-2.961,2.809-5.581,5.992-9.258,8.018c-1.227,0.676-2.153,1.914-3.182,2.93
		c-7.723,7.627-15.365,15.337-23.183,22.864c-3.848,3.705-6.883,8.018-10.034,12.255c-2.008,2.7-3.804,5.557-5.712,8.332
		c-0.679,0.988-1.36,1.982-2.127,2.901c-0.925,1.108-2.067,2.054-2.887,3.229c-0.8,1.146-1.314,2.493-1.831,3.513
		c-1.884,0.948-3.627,0.503-5.264,0.805c-1.65,0.304-3.251,0.9-4.907,1.144c-1.42,0.209-2.886,0.127-4.332,0.13
		c-4.1,0.008-8.201-0.027-12.301,0.001c-1.443,0.01-3.014-0.183-4.301,0.308c-3.284,1.254-6.643,1.011-10.005,1.012
		c-6.995,0.002-13.99-0.044-20.984-0.037c-1.684,0.002-3.507-0.25-5.024,0.292c-3.536,1.264-7.128,1.015-10.728,1.035
		c-4.341,0.024-8.683-0.024-13.025-0.016c-3.124,0.005-6.236-0.161-9.285,0.989c-1.293,0.487-2.855,0.348-4.295,0.343
		c-20.984-0.073-41.968-0.165-62.952-0.279c-1.438-0.008-2.999,0.099-4.288-0.402c-3.042-1.181-6.158-1.019-9.28-1.038
		c-15.195-0.091-30.391-0.146-45.586-0.261c-1.34-0.01-2.786,0.457-4.047-0.517c1.012-1.626,2.874-1.913,4.358-2.044
		c3.37-0.297,6.656-0.867,9.938-1.624c0.92-0.212,1.922-0.08,2.887-0.08c2.891-0.002,5.736-0.019,8.563-0.997
		c1.531-0.53,3.335-0.346,5.017-0.354c5.547-0.028,11.095,0.028,16.643-0.005c1.68-0.01,3.484,0.153,5.01-0.388
		c2.831-1.003,5.684-0.934,8.57-0.94c3.377-0.008,6.754,0.02,10.13,0.008c2.645-0.01,5.246-0.01,7.859-0.86
		c1.772-0.577,3.805-0.458,5.722-0.461c10.13-0.014,20.261,0.036,30.391,0.056c2.408,0.005,4.774-0.036,7.14-0.82
		c1.552-0.514,3.322-0.507,4.994-0.502c21.708,0.064,43.416,0.17,65.123,0.265c2.172,0.009,4.301,0.115,6.412,0.846
		c1.33,0.461,2.833,0.553,4.262,0.573c6.026,0.083,12.053,0.077,18.105,0.104c0.002-0.497,0.175-1.114-0.021-1.271
		c-2.059-1.654-4.061-3.379-6.148-5.001c-4.562-3.546-8.68-7.658-12.104-12.343c-1.144-1.566-2.327-3.055-3.658-4.446
		c-1.497-1.566-3.1-3.036-4.051-5.054c-0.301-0.639-0.807-1.201-1.294-1.729c-2.445-2.651-4.928-5.223-6.946-8.284
		c-1.564-2.374-3.971-4.184-5.952-6.293c-1.677-1.784-3.521-2.347-5.849-1.294c-2.064,0.933-4.309,0.946-6.358,0.149
		c-2.34-0.91-4.708-0.915-7.115-0.943c-2.412-0.029-4.824-0.017-7.235-0.07c-1.202-0.026-2.529,0.144-3.58-0.297
		c-3.246-1.361-6.622-1.135-9.984-1.199c-1.701-0.033-3.357-0.206-4.956-0.851c-0.662-0.267-1.394-0.507-2.094-0.508
		c-5.588-0.008-10.865-1.765-16.287-2.702c-3.536-0.611-7.098-1.117-10.622-1.845c-6.1-1.259-12.219-2.423-18.312-3.715
		c-4.924-1.044-9.907-1.851-14.696-3.469c-5.622,0.045-10.781-2.265-16.214-3.192c-5.445-0.929-10.685-2.851-16.094-3.805
		c-5.916-1.044-11.644-2.811-17.563-3.855c-6.596-1.163-13.023-3.279-19.534-4.937c-12.557-3.197-25.142-6.285-37.674-9.576
		c-6.266-1.645-12.629-2.94-18.759-5.115c-1.556-0.553-3.295-0.585-4.943-0.897c-0.19-0.036-0.33-0.335-0.493-0.512
		c0.3-0.232,0.583-0.634,0.903-0.665c0.955-0.095,1.966-0.227,2.882-0.018c3.745,0.851,7.563,1.251,11.328,1.949
		c4.707,0.872,9.324,2.118,14.125,2.623c2.823,0.297,5.694,0.976,8.443,1.713c2.579,0.692,5.298,0.64,7.739,1.586
		c2.344,0.908,4.812,0.524,7.087,1.152c3.028,0.836,6.127,1.167,9.166,1.861c3.735,0.854,7.507,1.549,11.244,2.393
		c6.775,1.529,13.737,2.097,20.437,4.013c0.689,0.197,1.415,0.327,2.129,0.359c4.589,0.209,8.956,1.591,13.413,2.493
		c3.288,0.666,6.585,1.291,9.867,1.985c7.027,1.487,14.227,2.088,21.139,4.154c3.614,0.176,7.121,0.95,10.641,1.742
		c7.007,1.577,14.219,2.129,21.136,4.171c3.873,0.062,7.575,1.196,11.351,1.856c3.779,0.661,7.491,1.74,11.38,1.6
		c3.795,1.736,8.128,0.828,11.965,2.441c0.851,0.358,1.894,0.319,2.853,0.351c2.41,0.081,4.746,0.27,7.106,1.044
		c2.01,0.658,4.302,0.399,6.416,0.817c1.632,0.323,3.135,1.234,4.902,1.018c0.623-0.076,1.332-0.934,1.127-1.516
		c-0.804-2.285-1.619-4.628-3.385-6.324c-2.974-2.856-5.321-6.195-7.807-9.438c-2.628-3.428-5.303-6.819-7.937-10.243
		c-2.636-3.427-5.372-6.785-7.84-10.33c-5.493-7.89-10.849-15.876-16.253-23.828c-0.675-0.994-1.331-2.003-1.953-3.032
		c-1.716-2.838-4.131-4.271-7.467-5.018c-5.611-1.255-11.092-3.12-16.584-4.866c-5.273-1.677-10.499-3.502-15.728-5.311
		c-5.911-2.045-11.715-4.348-17.391-7c-4.788-2.237-9.724-4.156-14.596-6.212c-0.664-0.28-1.353-0.507-2.004-0.814
		c-7.406-3.483-14.803-6.984-22.211-10.463c-3.918-1.841-7.623-4.155-11.848-5.317c-0.457-0.126-0.879-0.395-1.3-0.629
		c-8.643-4.81-17.822-8.507-26.789-12.617c-7.425-3.403-14.627-7.338-22.35-10.101c-1.353-0.484-2.609-1.246-3.899-1.9
		c-7.087-3.592-14.469-6.513-21.738-9.695c-6.172-2.701-12.352-5.363-18.625-7.813c-6.494-2.537-12.973-5.119-19.524-7.499
		c-3.39-1.231-6.758-2.559-10.166-3.683c-3.87-1.276-7.711-2.616-11.51-4.077c-0.626-0.241-1.104-0.866-1.65-1.313l-0.012,0.014
		c4.683-0.448,8.988,1.238,13.388,2.382c2.787,0.724,5.528,1.609,8.31,2.359c9.499,2.56,19.099,4.914,28.227,8.606
		c7.135,2.886,14.478,5.171,21.613,8.063c5.549,2.248,11.17,4.409,16.848,6.376c3.627,1.257,7.158,2.792,10.726,4.218
		c6.468,2.585,12.95,5.139,19.391,7.79c4.222,1.737,8.362,3.672,12.576,5.43c3.989,1.664,8.05,3.156,12.038,4.825
		c4.434,1.856,8.773,3.945,13.238,5.721c7.365,2.931,14.472,6.466,21.953,9.139c3.834,1.369,7.419,3.39,11.236,4.892
		c10.73,4.221,21.326,8.785,32.029,13.077c3.328,1.335,6.823,2.26,10.265,3.297c0.325,0.098,0.844-0.311,1.21-0.573
		c0.11-0.079,0.051-0.468-0.009-0.695c-0.121-0.462-0.214-0.958-0.457-1.356c-2.251-3.69-4.556-7.348-6.798-11.044
		c-2.866-4.725-5.675-9.484-8.534-14.213c-2.361-3.905-4.777-7.778-7.136-11.684c-3.728-6.172-7.502-12.304-10.833-18.72
		c-2.766-5.331-5.79-10.533-8.555-15.877c-1.449-2.799-3.866-4.972-6.553-6.61c-6.782-4.134-12.821-9.321-19.514-13.574
		c-0.807-0.513-1.569-1.122-2.269-1.776c-4.924-4.607-10.68-8.151-15.865-12.424c-0.738-0.608-1.674-0.989-2.363-1.64
		c-5.59-5.288-12.157-9.398-17.703-14.734c-4.736-2.515-7.719-7.215-12.365-9.884c-1.417-0.814-2.444-2.303-3.654-3.479
		c-1.551-1.507-3.095-2.975-4.953-4.172c-1.795-1.156-3.263-2.825-4.85-4.296c-3.52-3.263-6.493-7.117-10.743-9.595
		c-1.213-0.707-2.123-1.947-3.145-2.969c-3.409-3.408-6.799-6.836-10.212-10.24c-1.871-1.867-3.707-3.732-6.022-5.139
		c-1.611-0.979-2.906-2.509-4.264-3.871c-9.867-9.904-19.708-19.834-29.574-29.739c-2.033-2.041-3.921-4.234-6.546-5.63
		c-1.032-0.549-1.866-1.51-2.714-2.36c-6.3-6.313-12.584-12.641-18.86-18.977c-0.504-0.509-0.909-1.115-1.356-1.679
		c-0.453-0.571-0.297-1.774,0.274-1.89c0.436-0.088,0.905-0.074,1.351-0.028c0.219,0.022,0.471,0.174,0.623,0.344
		c4.183,4.695,9.529,8.072,14.037,12.406c2.065,1.986,4.54,3.541,6.688,5.449c2.16,1.918,3.9,4.401,6.264,5.974
		c3.463,2.304,6.009,5.588,9.272,7.985c4.696,3.449,8.671,7.603,12.823,11.605c0.69,0.665,1.407,1.377,2.247,1.796
		c2.224,1.11,3.761,2.984,5.499,4.639c2.434,2.318,4.659,4.82,7.616,6.604c1.812,1.093,3.189,2.91,4.753,4.41
		c2.08,1.994,3.978,4.164,6.578,5.596c1.23,0.677,2.184,1.871,3.233,2.862c1.572,1.485,2.984,3.147,5.003,4.106
		c0.638,0.302,1.257,0.77,1.713,1.308c3.614,4.257,8.165,7.482,12.496,10.868c6.044,4.727,11.497,10.172,17.968,14.394
		c2.986,1.948,5.553,4.553,8.425,6.741c7.251,5.526,14.572,10.958,21.826,16.477c5.736,4.363,11.692,8.413,17.429,12.768
		c1.004,0.763,2.087,1.161,3.322,1.217l0.33,0.619l0.284-0.279l-0.613-0.34c0.004-1.451-0.013-2.893-0.703-4.233
		c-0.441-0.857-0.847-1.733-1.249-2.609c-3.313-7.218-6.732-14.39-9.896-21.672c-2.393-5.508-4.474-11.152-6.666-16.747
		c-2.279-5.817-4.551-11.637-6.778-17.474c-2.143-5.616-4.901-10.976-6.836-16.68c-0.621-1.832-1.606-3.537-3.125-4.803
		c-3.007-2.507-4.647-6.135-7.353-8.869c-2.572-2.598-4.252-5.809-6.349-8.734c-3.358-4.682-6.859-9.261-10.288-13.892
		c-0.999-1.349-2.006-2.696-2.931-4.095c-9.554-14.44-19.16-28.847-28.602-43.36c-3.93-6.041-7.795-12.132-11.364-18.408
		c-2.612-4.593-5.574-8.987-8.366-13.478c-1.776-2.858-3.588-5.696-5.272-8.607c-2.408-4.164-4.694-8.398-7.07-12.58
		c-1.425-2.508-2.958-4.954-4.373-7.467c-1.297-2.304-2.208-4.823-3.931-6.892c-0.455-0.546-0.755-1.227-1.095-1.864
		c-3.516-6.58-7-13.178-10.547-19.741c-1.943-3.596-4.039-7.11-5.977-10.708c-1.939-3.6-3.456-7.431-5.975-10.712
		c-0.432-0.563-0.659-1.283-0.989-1.926c-4.953-9.63-10.527-18.903-15.982-28.252c-5.092-8.725-10.573-17.205-15.676-25.918
		c-0.113-0.193-0.214-0.48-0.154-0.671c0.134-0.423,0.331-0.845,0.594-1.2c0.091-0.122,0.481-0.117,0.685-0.041
		c0.434,0.163,0.965,0.308,1.227,0.641c1.039,1.318,1.881,2.801,2.99,4.051c5.112,5.766,9.374,12.166,13.885,18.383
		c8.476,11.682,16.444,23.712,24.062,35.956c5.587,8.98,11.605,17.679,16.973,26.809c4.627,7.868,10.004,15.293,15.049,22.915
		c4.381,6.618,8.726,13.26,13.15,19.85c5.492,8.181,11.448,16.048,16.557,24.488c3.744,4.123,6.334,9.053,9.497,13.581
		c5.085,7.279,10.105,14.607,15.513,21.656c0.106,0.138,0.577,0.201,0.672,0.102c0.289-0.3,0.736-0.763,0.664-1.045
		c-0.535-2.087-1.105-4.171-1.804-6.208c-3.749-10.916-6.541-22.098-9.338-33.279c-1.223-4.887-2.552-9.76-3.481-14.705
		c-1.107-5.891-2.785-11.648-3.76-17.571c-0.894-5.434-2.409-10.761-3.042-16.25c-1.253-2.462-0.867-5.189-1.303-7.782
		c-0.396-2.356-1.331-4.6-1.269-7.07c0.029-1.172-0.416-2.351-0.606-3.533c-0.266-1.653-0.609-3.305-0.711-4.97
		c-0.118-1.928-0.168-3.823-0.842-5.686c-0.4-1.106-0.4-2.355-0.586-3.539c-0.259-1.655-0.506-3.311-0.794-4.961
		c-0.124-0.708-0.538-1.419-0.477-2.097c0.437-4.876-1.242-9.508-1.556-14.292c-0.016-0.241,0.021-0.496-0.047-0.72
		c-1.268-4.197-1.522-8.502-1.388-12.849c-1.127-3.697-0.976-7.628-1.959-11.32c-0.636-2.389-0.766-4.734-0.792-7.139
		c-0.025-2.408-0.107-4.761-0.883-7.129c-0.584-1.782-0.08-3.931-0.704-5.687c-1.336-3.758-1.124-7.588-1.251-11.43
		c-0.039-1.187-0.217-2.415-0.595-3.536c-0.55-1.632-0.774-3.273-0.758-4.973c0.02-2.18-0.311-4.272-0.922-6.398
		c-0.519-1.806-0.401-3.809-0.461-5.728c-0.076-2.407-0.033-4.782-0.903-7.127c-0.485-1.307-0.445-2.839-0.483-4.274
		c-0.052-1.938-0.181-3.83-0.88-5.677c-0.876-2.319-0.465-4.773-0.526-7.171c-0.079-3.121,0.02-6.201-0.961-9.293
		c-0.633-1.995-0.361-4.291-0.418-6.454c-0.101-3.838,0.296-7.69-1.101-11.444c-0.48-1.29-0.254-2.861-0.265-4.305
		c-0.025-3.617,0.005-7.235,0.003-10.853c-0.001-2.408-0.23-4.744-0.813-7.135c-0.616-2.522-0.415-5.25-0.517-7.89
		c-0.055-1.435,0.002-2.875,0.008-4.384c0.665,0.199,1.273,0.191,1.456,0.466c1.34,2.013,2.3,4.168,2.867,6.569
		c2.536,10.74,5.441,21.399,7.725,32.19c1.239,5.855,2.949,11.613,3.728,17.577c0.433,3.316,1.42,6.557,1.991,9.86
		c0.98,5.668,1.802,11.364,3.468,16.889c-0.427,3.932,1.35,7.535,1.723,11.372c0.345,3.546,1.832,6.976,2.24,10.523
		c0.769,6.683,3.184,13.076,3.321,19.85c1.855,7.202,2.587,14.654,4.668,21.786c0.881,3.021,0.479,6.28,2.011,9.119
		c0.156,3.143,1.783,5.982,1.815,9.184c0.014,1.392,0.77,2.763,1.067,4.169c0.793,3.753,1.491,7.525,2.283,11.278
		c0.792,3.751,1.729,7.463,2.44,11.242c1.196,6.358,2.954,12.613,4.544,18.894c2.297,9.075,4.799,18.092,7.415,27.083
		c2.414,8.299,4.691,16.636,7.182,24.917c1.452,4.827,2.75,9.707,4.452,14.456c2.108,5.882,4.298,11.735,6.522,17.574
		c1.712,4.492,3.224,9.051,5.027,13.519c3.776,9.356,6.8,19.028,10.839,28.261c3.28,7.496,6.071,15.182,9.421,22.65
		c3.144,7.008,6.113,14.112,8.782,21.332c2.083,5.635,4.396,11.184,6.592,16.777c1.669,4.25,3.307,8.512,4.977,12.761
		c1.407,3.581,3.232,6.966,4.569,10.602c1.989,5.409,4.583,10.594,6.911,15.878c1.745,3.96,3.482,7.924,5.209,11.892
		c1.63,3.747,3.838,7.224,4.957,11.221c0.512,1.829,1.587,3.506,2.441,5.235c5.232,10.59,10.458,21.182,15.72,31.757
		c1.607,3.23,3.267,6.415,5.199,9.492c2.298,3.658,3.973,7.704,5.963,11.559c0.432,0.836,0.987,1.635,1.624,2.323
		c0.206,0.223,0.853,0.039,1.52,0.042c0.24-4.033,0.12-8.121,0.199-12.201c0.047-2.406-0.094-4.825,0.93-7.116
		c0.287-0.644,0.492-1.411,0.446-2.102c-0.281-4.159,2.022-7.948,1.678-12.104c1.339-3.623,1.154-7.602,2.606-11.199
		c1.303-9.287,3.736-18.324,6.195-27.345c1.389-5.097,3.074-10.117,4.72-15.141c1.872-5.715,3.715-11.445,5.814-17.078
		c3.188-8.558,6.391-17.113,9.859-25.565c2.555-6.225,5.096-12.457,7.519-18.735c1.474-3.818,3.508-7.366,4.906-11.241
		c1.791-4.963,4.279-9.672,6.435-14.505c1.666-3.733,3.2-7.527,4.948-11.22c1.648-3.479,3.53-6.838,4.711-10.537
		c0.508-1.589,1.448-3.042,2.209-4.548c5.216-10.328,10.408-20.669,15.666-30.976c2.952-5.786,6.375-11.307,9.743-16.857
		c0.749-1.234,1.481-2.488,2.106-3.787c2.304-4.787,5.388-9.099,8.18-13.589c2.792-4.492,5.575-8.99,8.435-13.438
		c0.638-0.992,1.537-1.835,2.411-2.643c0.194-0.179,0.809,0.025,1.193,0.158c0.15,0.052,0.279,0.398,0.276,0.608
		c-0.007,0.475,0.009,0.999-0.181,1.413c-0.801,1.752-1.693,3.462-2.515,5.205c-2.257,4.786-5.086,9.308-6.622,14.427
		c-0.205,0.684-0.612,1.308-0.92,1.962c-3.384,7.184-6.975,14.281-10.092,21.58c-3.018,7.069-6.409,13.989-8.905,21.281
		c-0.466,1.36-1.113,2.67-1.782,3.947c-1.234,2.355-2.15,4.825-3.031,7.329c-1.115,3.172-2.418,6.28-3.688,9.397
		c-3.899,9.573-7.104,19.414-11.193,28.913c-0.19,0.441-0.331,0.903-0.485,1.358c-4.242,12.527-8.731,24.973-13.254,37.395
		c-7.984,21.93-15.044,44.167-22.745,66.188c-2.067,5.911-3.314,12.033-5.012,18.038c-1.436,5.077-2.634,10.223-3.832,15.363
		c-1.142,4.902-1.884,9.898-3.484,14.692c0.235,4.619-2.112,8.902-1.761,13.543c0.053,0.707-0.013,1.481-0.248,2.144
		c-2.159,6.106-0.907,12.431-1.184,18.652c-0.05,1.133,0.417,2.385,0.944,3.432c2.705,5.372,5.112,10.878,8.352,16
		c2.433,3.845,4.353,8.028,6.768,11.916c2.536,4.083,4.993,8.216,7.428,12.361c0.975,1.659,1.721,3.454,2.705,5.107
		c1.961,3.297,4.008,6.543,6.036,9.8c0.304,0.488,1.556,0.293,1.863-0.296c0.554-1.061,1.413-2.105,1.538-3.224
		c0.672-6.006,2.644-11.693,4.071-17.511c2.699-11.006,6.725-21.556,11.079-31.991c1.111-2.662,2.288-5.299,3.304-7.997
		c3.75-9.955,8.827-19.287,13.928-28.556c6.375-11.583,13.653-22.66,21.313-33.439c4.166-5.861,8.806-11.394,13.008-17.247
		c0.975-1.358,2.269-2.491,3.44-3.704c1.838-1.903,3.802-3.673,5.087-6.07c0.553-1.032,1.522-1.854,2.354-2.722
		c2.992-3.124,6.066-6.123,8.605-9.707c2.063-2.912,5.017-5.185,7.532-7.785c2.838-2.933,6.035-5.532,8.104-9.181
		c0.691-1.219,1.933-2.136,2.959-3.155c17.466-17.322,34.938-34.638,52.411-51.955c0.856-0.849,1.607-1.881,2.611-2.491
		c5.231-3.178,9.04-7.917,13.433-12.013c2.284-2.129,4.386-4.414,7.145-6.053c1.821-1.082,3.21-2.889,4.798-4.364
		c3.343-3.105,6.282-6.639,10.32-8.995c1.836-1.071,3.307-2.758,5.011-4.08c0.204-0.158,0.969,0.108,1.222,0.397
		c0.249,0.285,0.311,0.882,0.213,1.284c-0.107,0.439-0.425,0.88-0.764,1.202c-4.036,3.832-7.195,8.37-10.467,12.826
		c-0.993,1.352-2.164,2.578-3.31,3.81c-1.475,1.585-3.137,3.007-4.07,5.036c-0.197,0.429-0.493,0.857-0.851,1.16
		c-3.715,3.144-6.164,7.369-9.365,10.955c-2.715,3.041-5.144,6.338-7.723,9.499c-1.513,1.855-2.917,3.805-4.606,5.521
		c-1.352,1.374-2.762,2.696-3.587,4.499c-0.197,0.43-0.485,0.862-0.839,1.169c-3.666,3.186-6.187,7.35-9.372,10.948
		c-1.906,2.152-3.537,4.547-5.427,6.715c-1.736,1.991-3.869,3.647-5.001,6.13c-3.688,3.483-6.204,7.942-9.75,11.576
		c-2.665,2.731-4.775,6.004-7.126,9.04c-0.734,0.948-1.336,2.03-2.191,2.85c-3.846,3.688-6.808,8.07-9.906,12.351
		c-0.563,0.778-1.148,1.57-1.859,2.204c-3.632,3.236-6.081,7.436-9.146,11.133c-2.754,3.322-5.046,7.072-8.051,10.132
		c-5.09,5.183-8.771,11.44-13.544,16.841c-1.623,3.583-5.417,5.518-6.958,9.164c-4.581,4.997-7.789,10.974-11.694,16.453
		c-3.627,5.089-6.955,10.393-10.372,15.63c-3.154,4.834-6.248,9.707-8.829,14.883c-2.152,4.314-4.297,8.632-6.5,12.92
		c-5.064,9.854-9.165,20.12-13.389,30.349c-3.407,8.251-5.909,16.787-8.955,25.146c-0.59,1.62-0.905,3.226-0.93,4.931
		c-0.025,1.73,0.325,3.264,1.325,4.764c5.6,8.408,11.171,16.836,16.636,25.333c3.64,5.659,7.047,11.467,10.63,17.164
		c3.454,5.493,6.983,10.942,11.588,15.583c0.508,0.512,1.077,0.963,1.628,1.43c0.689,0.584,2.153,0.397,2.556-0.374
		c2.009-3.845,4.149-7.631,5.946-11.573c2.517-5.521,6.09-10.368,9.404-15.379c1.049-1.586,2.544-2.883,3.867-4.282
		c2.311-2.443,4.91-4.606,6.582-7.639c0.676-1.226,1.903-2.161,2.926-3.181c3.584-3.578,7.185-7.139,10.787-10.7
		c0.857-0.847,1.621-1.875,2.635-2.462c4.463-2.585,7.658-6.572,11.352-10.005c2.99-2.779,5.588-5.994,9.278-7.992
		c1.027-0.556,1.795-1.593,2.672-2.419c2.273-2.143,4.33-4.516,7.187-5.998c1.034-0.537,1.827-1.553,2.705-2.376
		c1.755-1.645,3.349-3.479,5.598-4.52c0.428-0.198,0.855-0.495,1.16-0.851c3.325-3.88,7.684-6.562,11.612-9.699
		c3.549-2.835,7.01-5.815,10.748-8.453c3.118-2.2,5.935-4.869,9.064-7.108c5.854-4.19,11.114-9.169,17.232-13.01
		c4.54-4.328,9.839-7.681,14.784-11.489c4.566-3.516,9.174-6.977,13.797-10.416c6.934-5.158,13.955-10.206,21.019-15.177
		c4.514-3.176,9.051-6.341,13.555-9.534c7.846-5.562,15.842-10.894,23.831-16.241c1.04-0.696,2.101-1.138,3.334-1.206
		L931.039,681.411z"/>
	<path fill="#74AD7D" d="M367.261,503.311c-0.222-0.031-0.48,0.001-0.661-0.102c-1.638-0.928-2.909-2.239-3.88-3.841
		c-0.107-0.176-0.165-0.581-0.082-0.638c0.361-0.244,0.803-0.592,1.18-0.554c2.321,0.232,3.638,1.776,4.492,3.765
		c0.121,0.282-0.231,0.809-0.446,1.174C367.784,503.252,367.469,503.25,367.261,503.311z"/>
	<path fill="#FFFFFF" d="M379.405,484.691c1.374,1.048,2.184,2.494,2.783,4.064c0.138,0.362,0.022,0.82,0.023,1.234
		c-0.412-0.062-0.976,0.027-1.21-0.21c-1.171-1.185-2.265-2.448-2.746-4.101C378.635,485.354,379.02,485.022,379.405,484.691z"/>
	<path fill="#FFFFFF" d="M413.719,632.071c0.544,0.336,1.103,0.652,1.622,1.023c0.127,0.091,0.213,0.503,0.17,0.529
		c-0.338,0.21-0.784,0.579-1.06,0.488c-0.584-0.193-1.086-0.636-1.623-0.975C413.124,632.781,413.422,632.426,413.719,632.071z"/>
	<path fill="#74AD7D" d="M931.019,681.382c0.294-0.335,0.559-0.705,0.897-0.989c0.141-0.119,0.502-0.155,0.649-0.057
		c0.568,0.378,0.497,0.758-0.178,0.929c-0.434,0.11-0.897,0.101-1.348,0.145C931.039,681.411,931.019,681.382,931.019,681.382z"/>
	<path fill="#74AD7D" d="M365.243,658.637c-0.201-0.109-0.588-0.262-0.574-0.319c0.116-0.482,0.335-0.364,0.563,0.333
		C365.231,658.651,365.243,658.637,365.243,658.637z"/>
	<polygon fill="#93CE9A" points="541.872,643.501 542.486,643.841 542.202,644.121 	"/>
</g>
</svg>
